HIERARCHY
ROOT Hips
{
	OFFSET	0.00	0.00	0.00
	CHANNELS 6 Xposition Yposition Zposition Zrotation Xrotation Yrotation
	JOINT LeftUpLeg
	{
		OFFSET	 0.126116	-0.065224	 0.014019
		CHANNELS 3 Zrotation Xrotation Yrotation
		JOINT LeftLeg
		{
			OFFSET	 0.000000	 0.569914	 0.000000
			CHANNELS 3 Zrotation Xrotation Yrotation
			JOINT LeftFoot
			{
				OFFSET	 0.000000	 0.544423	 0.000000
				CHANNELS 3 Zrotation Xrotation Yrotation
				JOINT LeftToeBase
				{
					OFFSET	 0.000000	 0.207117	 0.000000
					CHANNELS 3 Zrotation Xrotation Yrotation
					End Site
					{
						OFFSET	 0.000000	 0.207117	 0.000000
					}
				}
			}
		}
	}
	JOINT RightUpLeg
	{
		OFFSET	-0.124023	-0.065224	 0.008373
		CHANNELS 3 Zrotation Xrotation Yrotation
		JOINT RightLeg
		{
			OFFSET	 0.000000	 0.570047	 0.000000
			CHANNELS 3 Zrotation Xrotation Yrotation
			JOINT RightFoot
			{
				OFFSET	 0.000000	 0.544354	 0.000000
				CHANNELS 3 Zrotation Xrotation Yrotation
				JOINT RightToeBase
				{
					OFFSET	 0.000000	 0.207540	 0.000000
					CHANNELS 3 Zrotation Xrotation Yrotation
					End Site
					{
						OFFSET	 0.000000	 0.207540	 0.000000
					}
				}
			}
		}
	}
	JOINT Spine
	{
		OFFSET	 0.000184	 0.117403	 0.007763
		CHANNELS 3 Zrotation Xrotation Yrotation
		JOINT Spine1
		{
			OFFSET	 0.000000	 0.137269	 0.000000
			CHANNELS 3 Zrotation Xrotation Yrotation
			JOINT Spine2
			{
				OFFSET	 0.000000	 0.156879	 0.000000
				CHANNELS 3 Zrotation Xrotation Yrotation
				JOINT LeftShoulder
				{
					OFFSET	 0.080501	 0.160143	 0.002496
					CHANNELS 3 Zrotation Xrotation Yrotation
					JOINT LeftArm
					{
						OFFSET	 0.000000	 0.164363	 0.000000
						CHANNELS 3 Zrotation Xrotation Yrotation
						JOINT LeftForeArm
						{
							OFFSET	 0.000000	 0.364576	 0.000000
							CHANNELS 3 Zrotation Xrotation Yrotation
							JOINT LeftHand
							{
								OFFSET	 0.000000	 0.360812	 0.000000
								CHANNELS 3 Zrotation Xrotation Yrotation
								JOINT LeftHandIndex1
								{
									OFFSET	 0.000000	 0.086006	 0.000000
									CHANNELS 3 Zrotation Xrotation Yrotation
									JOINT LeftHandIndex2
									{
										OFFSET	 0.000000	 0.047237	 0.000000
										CHANNELS 3 Zrotation Xrotation Yrotation
										JOINT LeftHandIndex3
										{
											OFFSET	-0.004284	 0.038165	 0.000551
											CHANNELS 3 Zrotation Xrotation Yrotation
											End Site
											{
												OFFSET	-0.004284	 0.038165	 0.000551
											}
										}
									}
								}
							}
						}
					}
				}
				JOINT Neck
				{
					OFFSET	 0.000000	 0.176489	 0.000000
					CHANNELS 3 Zrotation Xrotation Yrotation
					JOINT Head
					{
						OFFSET	 0.000000	 0.077941	 0.001747
						CHANNELS 3 Zrotation Xrotation Yrotation
						End Site
						{
							OFFSET	 0.000000	 0.077941	 0.001747
						}
					}
				}
				JOINT RightShoulder
				{
					OFFSET	-0.080363	 0.159706	-0.000306
					CHANNELS 3 Zrotation Xrotation Yrotation
					JOINT RightArm
					{
						OFFSET	 0.000000	 0.164196	 0.000000
						CHANNELS 3 Zrotation Xrotation Yrotation
						JOINT RightForeArm
						{
							OFFSET	 0.000000	 0.365611	 0.000000
							CHANNELS 3 Zrotation Xrotation Yrotation
							JOINT RightHand
							{
								OFFSET	 0.000000	 0.360648	 0.000000
								CHANNELS 3 Zrotation Xrotation Yrotation
								JOINT RightHandIndex1
								{
									OFFSET	 0.000000	 0.069977	 0.000000
									CHANNELS 3 Zrotation Xrotation Yrotation
									JOINT RightHandIndex2
									{
										OFFSET	 0.000000	 0.052305	 0.000000
										CHANNELS 3 Zrotation Xrotation Yrotation
										JOINT RightHandIndex3
										{
											OFFSET	 0.009002	 0.042196	 0.000782
											CHANNELS 3 Zrotation Xrotation Yrotation
											End Site
											{
												OFFSET	 0.009002	 0.042196	 0.000782
											}
										}
									}
								}
							}
						}
					}
				}
			}
		}
	}
}
MOTION
Frames:    6
Frame Time: 0.03333334
 0.790140	 1.143153	-0.156822	 12.234880	-3.344952	-48.501680	-176.271900	 17.438690	-19.045460	 6.355138	-50.207710	 10.689540	 75.096760	 50.591170	-102.914000	 1.588841	 26.669760	-7.460162	 127.031200	 23.432980	 73.963750	-4.775794	-44.010380	-5.249865	-47.937710	 44.153310	 55.992890	-1.738882	 33.018720	 3.063617	 0.964122	 5.424222	-3.527411	 0.007209	 5.030604	-0.374213	 0.378553	 3.603300	 10.355520	-101.601900	-3.181843	 95.814600	 33.964560	 54.361760	-24.676560	 10.231000	-0.161086	-7.183141	 1.797886	-0.569280	 9.955124	-3.819319	 14.530450	-7.229618	-7.093497	 8.384677	 2.071105	 4.963066	-4.014628	-0.346955	 16.627220	-6.487885	-4.170402	-0.382995	-3.675300	-44.290570	 87.510790	-5.720788	-90.792340	-31.564710	-1.759256	 94.098920	-10.061060	-1.156942	 15.793600	-13.148620	 18.559900	-0.237745	-2.909646	 16.471090	-2.905431	 14.362690	 23.116890	-6.822879	-8.239867	-2.131385	 0.447455
 0.858809	 1.166178	-0.146322	 9.742704	-2.488631	-42.590600	-178.789900	 17.810860	-14.422710	 5.677638	-47.017350	 9.141371	 77.665200	 49.115710	-100.388100	 1.397976	 23.660680	-7.474000	 136.360500	 26.647650	 60.028180	-5.060030	-45.662700	-5.078664	-48.815590	 48.379880	 59.408530	-1.865096	 32.182640	 3.462090	 0.517862	 5.116075	-1.581356	-0.590875	 4.618190	-0.271660	 0.468173	 3.493398	 5.023369	-104.489600	-8.780186	 98.481500	 38.184090	 48.566210	-28.651990	 10.355880	-0.155075	-7.284110	 6.737729	-3.724383	 11.600200	-5.033481	 14.985650	-6.766293	-7.143216	 8.554688	 2.102501	 4.963066	-4.014628	-0.346955	 15.243810	-8.103035	-7.426952	 1.508921	-3.227400	-45.089080	 88.047320	-4.170772	-91.011700	-25.735060	-2.869679	 86.805150	-10.063360	-1.059019	 14.892770	-3.739978	 1.724180	 6.988442	-2.907582	 16.341350	-3.129981	 14.377990	 23.501140	-6.932620	-8.239867	-2.131385	 0.447455
 0.912212	 1.195969	-0.134305	 7.151645	-2.670727	-39.750840	 179.432200	 15.349910	-11.977120	 4.773328	-42.067340	 7.082995	 74.924740	 48.705840	-93.583820	 1.398009	 23.660660	-7.474018	 150.189800	 29.657550	 40.431000	-4.886703	-44.665970	-4.597027	-50.607200	 51.422900	 62.400490	-1.877885	 31.065870	 3.747070	 0.263516	 5.119238	-0.054112	-2.581197	 2.423793	-0.203031	 2.089448	 4.330736	 0.347886	-107.629800	-15.236790	 100.306300	 40.616120	 43.790230	-30.558980	 10.413640	-0.151012	-7.383317	 8.547732	-5.326885	 11.448160	-6.154350	 15.595150	-6.308520	-7.191679	 8.724763	 2.134250	 4.963066	-4.014628	-0.346955	 13.386730	-8.071446	-10.327160	 2.525169	-1.037783	-45.294920	 89.271710	-0.914297	-91.561500	-21.937760	-3.365276	 77.132360	-10.146190	-0.974618	 14.055400	 6.783926	-9.405214	 16.669240	-2.905718	 16.218370	-3.342777	 14.391720	 23.858850	-7.034708	-8.239867	-2.131385	 0.447455
 0.949267	 1.220990	-0.123252	 4.155336	-3.325414	-39.090540	 179.342000	 10.549100	-11.266050	 3.877629	-36.259310	 5.016843	 71.602880	 48.672270	-87.468930	 1.398026	 23.660640	-7.474029	 158.456700	 25.991030	 29.025820	-3.759752	-37.265740	-3.032759	-45.238520	 50.392530	 57.084530	-1.590296	 29.640540	 3.596563	-0.138114	 4.870419	 1.553158	-2.599376	 1.572506	 0.060131	 1.606650	 3.535725	-3.401026	-109.289800	-20.501110	 101.768600	 43.616570	 41.092430	-34.431160	 10.467760	-0.153736	-7.501488	 8.277505	-8.228726	 12.182640	-6.919394	 15.557080	-6.027920	-7.238750	 8.895721	 2.167151	 4.963066	-4.014628	-0.346955	 11.018360	-8.824295	-12.149210	 1.853324	 1.153651	-44.877370	 91.186400	 1.472993	-92.122800	-20.414270	-3.355881	 69.429540	-10.183320	-0.967952	 14.027790	 12.146510	-14.428870	 24.653890	-2.903834	 16.101390	-3.545201	 14.405470	 24.199030	-7.132101	-8.239867	-2.131385	 0.447455
 0.974329	 1.240765	-0.114142	 1.709002	-3.870065	-38.782290	 179.519300	 6.018454	-10.897060	 3.112420	-30.493760	 2.988024	 68.197980	 48.738950	-81.652170	 1.398039	 23.660630	-7.474036	 164.036200	 21.003130	 19.945460	-2.730232	-28.929370	-1.504825	-39.310260	 48.628890	 51.353680	-1.349383	 28.392720	 3.473574	-0.563072	 4.547894	 2.943622	-1.754307	 1.635431	 0.161745	 0.503644	 2.271853	-6.794322	-110.673700	-25.201510	 102.869200	 46.179290	 39.039230	-37.486670	 10.494160	-0.156975	-7.594359	 8.097856	-9.635920	 12.599710	-7.543998	 15.559960	-5.791621	-7.281494	 9.042697	 2.195806	 4.963066	-4.014628	-0.346955	 8.818793	-9.466819	-13.685120	 1.182219	 2.917773	-44.447740	 92.781280	 3.700950	-92.717380	-19.390080	-3.184854	 62.676780	-10.191470	-0.978649	 14.175270	 17.272670	-19.056490	 33.017120	-2.902317	 15.989400	-3.738887	 14.419240	 24.524650	-7.225646	-8.239867	-2.131385	 0.447455
 0.983580	 1.247957	-0.108798	 1.458021	-4.053354	-39.984640	 179.011500	 4.413345	-12.311730	 2.747813	-27.472860	 1.978263	 66.946200	 48.849070	-79.302220	 1.398039	 23.660620	-7.474037	 165.081600	 18.677880	 17.149950	-2.151247	-23.535640	-0.666023	-36.922430	 47.063590	 48.269110	-1.280886	 27.915590	 3.430321	-0.863147	 4.299921	 4.127537	-1.122838	 1.459024	 0.713793	-0.620224	 1.607375	-8.721172	-111.205000	-27.368640	 102.784700	 47.009960	 39.054490	-37.508190	 10.507820	-0.162880	-7.679447	 7.578976	-5.742365	 15.015530	-7.537456	 15.775900	-5.749578	-7.305830	 9.084506	 2.205327	 4.963066	-4.014628	-0.346955	 7.398095	-9.951672	-13.810890	 0.888130	 3.024679	-44.309920	 92.840630	 5.406197	-93.163170	-18.705320	-2.215547	 60.368300	-10.196020	-0.944328	 13.851200	 18.277360	-21.150260	 36.383240	-2.900738	 15.893770	-3.904345	 14.431480	 24.802640	-7.305721	-8.239867	-2.131385	 0.447455
